<?xml version="1.0" encoding="UTF-8"?>
<svg xmlns="http://www.w3.org/2000/svg" width="260" height="260">
<style type="text/css">
	.st0{fill:#2B3E6C;}
	.st1{fill:#FFFFFF;}
	.st2{fill:#0093DD;}
	.st3{fill:#FEE800;}
	.st4{fill:#B3DEF8;}
	.st5{display:none;}
	.st6{display:inline;}
</style>
<g id="Shield">
	<circle id="Shield_x5F_1" class="st0" cx="130" cy="130" r="130"/>
	<circle id="Shield_x5F_2" class="st1" cx="130" cy="130" r="127"/>
	<g id="Lining">
		<path class="st0" d="M223,48.7c2.4,2.8,4.7,5.7,6.9,8.7l4.6-1.3c-2.3-3.2-4.7-6.3-7.3-9.3L223,48.7z"/>
		<path class="st0" d="M229.9,202.6c-2.2,3-4.5,5.9-6.9,8.7l2.3,4.2c2.6-2.9,5.1-6,7.5-9.1L229.9,202.6z"/>
		<path class="st0" d="M234.1,63.5c2,3.1,3.8,6.3,5.6,9.6l4.7-0.6c-1.8-3.5-3.7-7-5.8-10.3L234.1,63.5z"/>
		<path class="st0" d="M242.8,79.7c1.5,3.4,2.9,6.8,4.1,10.3l4.8,0.1c-1.2-3.8-2.6-7.4-4.2-11L242.8,79.7z"/>
		<path class="st0" d="M246.9,169.9c-1.2,3.5-2.6,7-4.1,10.3l3.4,3.3c1.6-3.6,3.1-7.2,4.4-10.9L246.9,169.9z"/>
		<path class="st0" d="M251.5,152c-0.7,3.7-1.5,7.3-2.5,10.8l3.9,2.8c1.1-3.8,2-7.6,2.7-11.5L251.5,152z"/>
		<path class="st0" d="M209.8,35.8c2.8,2.4,5.5,4.9,8.1,7.5l4.3-2c-2.7-2.8-5.6-5.6-8.6-8.1L209.8,35.8z"/>
		<path class="st0" d="M239.6,186.9c-1.7,3.3-3.6,6.5-5.6,9.6l2.9,3.8c2.2-3.3,4.2-6.7,6-10.1L239.6,186.9z"/>
		<path class="st0" d="M249.1,97.1c1,3.5,1.8,7.2,2.5,10.8l4.7,0.8c-0.7-3.9-1.5-7.8-2.5-11.5L249.1,97.1z"/>
		<path class="st0" d="M253.4,133.7c-0.1,3.7-0.4,7.4-0.8,11.1l4.3,2.2c0.5-3.9,0.8-7.8,1-11.8L253.4,133.7z"/>
		<path class="st0" d="M142.9,7.2c3.7,0.4,7.4,0.9,11,1.6l2.5-4.1c-3.8-0.8-7.7-1.4-11.7-1.9L142.9,7.2z"/>
		<path class="st0" d="M161.1,10.4c3.6,0.9,7.1,2,10.6,3.3l3-3.7c-3.7-1.4-7.4-2.6-11.2-3.6L161.1,10.4z"/>
		<path class="st0" d="M178.5,16.4c3.4,1.5,6.8,3.1,10,4.8l3.6-3.2c-3.4-1.9-7-3.7-10.6-5.2L178.5,16.4z"/>
		<path class="st0" d="M257.2,116l-4.6-0.8c0.4,3.6,0.7,7.3,0.8,11.1l4.5,1.5C257.9,123.8,257.7,119.9,257.2,116z"/>
		<path class="st0" d="M198.4,21.8l-3.5,3.1c3.2,2,6.2,4,9.2,6.3l4-2.6C204.9,26.2,201.7,23.9,198.4,21.8z"/>
		<path class="st0" d="M153.5,255.8l0.4-4.7c-3.6,0.7-7.3,1.3-11,1.6l-1.1,4.6C145.7,257.1,149.6,256.6,153.5,255.8z"/>
		<path class="st0" d="M218,216.6c-2.6,2.6-5.3,5.2-8.1,7.6l1.7,4.5c3-2.5,5.9-5.2,8.7-7.9L218,216.6z"/>
		<path class="st0" d="M204.1,228.8c-3,2.2-6,4.3-9.2,6.3l1,4.7c3.4-2,6.7-4.2,9.8-6.6L204.1,228.8z"/>
		<path class="st0" d="M171.7,246.3c-3.5,1.2-7,2.3-10.6,3.3l-0.4,4.7c3.8-0.9,7.6-2.1,11.3-3.3L171.7,246.3z"/>
		<path class="st0" d="M188.6,238.8c-3.2,1.8-6.6,3.4-10,4.8l0.3,4.8c3.7-1.5,7.2-3.2,10.7-5L188.6,238.8z"/>
		<path class="st0" d="M124.4,6.6c1.8-0.1,3.7-0.1,5.6-0.1c1.9,0,3.7,0,5.5,0.1l1.8-4.4C134.9,2.1,132.5,2,130,2c-1.5,0-3,0-4.4,0.1
			L124.4,6.6z"/>
		<path class="st0" d="M61.6,238.2l3.5-3.1c-3.2-2-6.2-4-9.2-6.3l-4,2.6C55.1,233.8,58.3,236.1,61.6,238.2z"/>
		<path class="st0" d="M30.1,57.4c2.2-3,4.5-5.9,6.9-8.7l-2.3-4.2c-2.6,2.9-5.1,6-7.5,9.1L30.1,57.4z"/>
		<path class="st0" d="M71.4,21.2c3.2-1.8,6.6-3.4,10-4.8l-0.3-4.8c-3.7,1.5-7.2,3.2-10.7,5L71.4,21.2z"/>
		<path class="st0" d="M88.3,13.7c3.5-1.2,7-2.3,10.6-3.3l0.4-4.7C95.5,6.6,91.7,7.8,88,9L88.3,13.7z"/>
		<path class="st0" d="M81.5,243.6c-3.4-1.5-6.8-3.1-10-4.8l-3.6,3.2c3.4,1.9,7,3.7,10.6,5.2L81.5,243.6z"/>
		<path class="st0" d="M98.9,249.6c-3.6-0.9-7.1-2-10.6-3.3l-3,3.7c3.7,1.4,7.4,2.6,11.2,3.6L98.9,249.6z"/>
		<path class="st0" d="M135.6,253.4c-1.8,0.1-3.7,0.1-5.6,0.1c-1.9,0-3.7,0-5.5-0.1l-1.8,4.4c2.4,0.1,4.9,0.2,7.4,0.2
			c1.5,0,3,0,4.4-0.1L135.6,253.4z"/>
		<path class="st0" d="M50.2,224.2c-2.8-2.4-5.5-4.9-8.1-7.5l-4.3,2c2.7,2.8,5.6,5.6,8.6,8.1L50.2,224.2z"/>
		<path class="st0" d="M106.5,4.2l-0.4,4.7c3.6-0.7,7.3-1.3,11-1.6l1.1-4.6C114.3,2.9,110.4,3.4,106.5,4.2z"/>
		<path class="st0" d="M117.1,252.8c-3.7-0.4-7.4-0.9-11-1.6l-2.5,4.1c3.8,0.8,7.7,1.4,11.7,1.9L117.1,252.8z"/>
		<path class="st0" d="M55.9,31.2c3-2.2,6-4.3,9.2-6.3l-1-4.7c-3.4,2-6.7,4.2-9.8,6.6L55.9,31.2z"/>
		<path class="st0" d="M6.6,126.3c0.1-3.7,0.4-7.4,0.8-11.1l-4.3-2.2c-0.5,3.9-0.8,7.8-1,11.8L6.6,126.3z"/>
		<path class="st0" d="M8.5,108c0.7-3.7,1.5-7.3,2.5-10.8L7,94.4c-1.1,3.8-2,7.6-2.7,11.5L8.5,108z"/>
		<path class="st0" d="M13.1,90.1c1.2-3.5,2.6-7,4.1-10.3l-3.4-3.3c-1.6,3.6-3.1,7.2-4.4,10.9L13.1,90.1z"/>
		<path class="st0" d="M7.4,144.8c-0.4-3.6-0.7-7.3-0.8-11.1L2,132.2c0.1,4,0.3,7.9,0.7,11.8L7.4,144.8z"/>
		<path class="st0" d="M20.4,73.1c1.7-3.3,3.6-6.5,5.6-9.6L23,59.7c-2.2,3.3-4.2,6.7-6,10.1L20.4,73.1z"/>
		<path class="st0" d="M10.9,162.9c-1-3.5-1.8-7.2-2.5-10.8l-4.7-0.8c0.7,3.9,1.5,7.8,2.5,11.5L10.9,162.9z"/>
		<path class="st0" d="M37,211.3c-2.4-2.8-4.7-5.7-6.9-8.7l-4.6,1.3c2.3,3.2,4.7,6.3,7.3,9.3L37,211.3z"/>
		<path class="st0" d="M25.9,196.5c-2-3.1-3.8-6.3-5.6-9.6l-4.7,0.6c1.8,3.5,3.7,7,5.8,10.3L25.9,196.5z"/>
		<path class="st0" d="M17.2,180.3c-1.5-3.4-2.9-6.8-4.1-10.3l-4.8-0.1c1.2,3.8,2.6,7.4,4.2,11L17.2,180.3z"/>
		<path class="st0" d="M48.5,31.3c-3,2.5-5.9,5.2-8.7,7.9l2.3,4.1c2.6-2.6,5.3-5.2,8.1-7.6L48.5,31.3z"/>
	</g>
	<path id="Base" class="st0" d="M130,35c-45.4,0-95,35.5-95,95c0,24.9,9.1,43.5,19.7,57.9c10.6,14.4,22.6,21.7,33.5,19.9
		s20.4-2.6,30.9,1.5c4.4,1.7,7,5.3,8.6,8.9c-1.4-1.8-3.7-3.8-7.3-5.7c-7.9-4.2-20.7-2-26.5-0.3s-12.9-1.8-13-1.8l-1.3,2.7
		c0.3,0.1,7,3.8,14.8,2c7.8-1.7,14.7-3.3,23-0.8c4.2,1.3,7.2,4.1,8.8,7c-1.1-0.9-2.6-1.5-3.9-1.9c-4.1-1.3-10.1-0.3-14.1,0.7
		c-4,1-10.1-1.6-10.2-1.6l-1.2,2.8c0.3,0.1,6.5,2.8,11.7,1.8s9.5-1.9,12.9-0.8c3.1,1,8.6,6,8.6,6v0c0,0,0,0,0,0s0,0,0,0v0
		c0,0,5.5-5,8.6-6c3.3-1.1,7.7-0.2,12.9,0.8s11.4-1.7,11.7-1.8l-1.2-2.8c-0.1,0-6.1,2.5-10.2,1.6c-4-1-10-2-14.1-0.7
		c-1.3,0.4-2.8,1.1-3.9,1.9c1.7-2.9,4.7-5.8,8.8-7c8.2-2.5,15.1-0.9,23,0.8c7.8,1.7,14.5-1.9,14.8-2l-1.3-2.7c-0.1,0-7.2,3.5-13,1.8
		s-18.6-3.9-26.5,0.3c-3.5,1.9-5.8,3.9-7.3,5.7c1.6-3.6,4.2-7.2,8.6-8.9c10.5-4.1,20.1-3.3,30.9-1.5s22.9-5.5,33.5-19.9
		c10.6-14.4,19.7-33.1,19.7-57.9C225,70.5,175.4,35,130,35z"/>
</g>
<g id="Globe">
	<g id="Row_7">
		<path class="st2" d="M116.9,178.4c-9.1,1.2-17.6,3.5-24.9,6.2c4.6,7.5,9.8,13.8,14.8,19c5.4,0.7,16.6,1.7,21.5,9.9
			C128.2,206,126.4,191.1,116.9,178.4z"/>
		<path class="st2" d="M89.1,185.6c-10.6,4.1-18.5,8.6-22.5,11c6.1,5.5,12.4,8.4,18.2,8.4c1,0,1.9-0.1,2.9-0.2
			c6.2-1.1,10.6-1.5,14.9-1.5C99.1,199.7,93.1,192.2,89.1,185.6z"/>
	</g>
	<g id="Row_6">
		<path class="st2" d="M105.1,177.5H88c0.8,1.5,1.6,3,2.4,4.4C95,180.3,99.8,178.7,105.1,177.5z"/>
		<path class="st2" d="M84.6,177.5H51.2c2.2,3.8,7.4,11.4,13.2,17c3.8-2.4,12-7.1,23.2-11.5C86.6,181.2,85.5,179.4,84.6,177.5z"/>
	</g>
	<g id="Row_5">
		<path class="st3" d="M210.6,145.5l0.6,3.6l-10,20.5c-3.8-2-8.5-3.6-13.6-4.9l-1.8,4.9c-5.8-3.8-10.2-6-14.1-7.7
			c-3.1-0.4-6.3-0.6-9.5-0.8v8.9c23.9,4.1,24.9,4.2,48.3,4.5c5.1-9.3,8.4-18.9,10.2-29H210.6z"/>
		<path class="st3" d="M127.4,164.1v-5.5c-6.4,1.5-13,4.7-17.7,7.8c1.8,1,5.1,2.5,9.2,2c2.7-0.5,16-2.8,24.7-1.4s10.1,1.6,15.7,2.6
			v-8.5C147.4,160.5,135.7,161.4,127.4,164.1z"/>
		<path class="st3" d="M107.9,165l10.3-14.9c-5.1,1.5-10.9,4.5-16.7,9.9C104,161.9,106.2,163.7,107.9,165z"/>
		<path class="st3" d="M98.8,157.9l10.4-12.4l-4.9,0c-3.6,1.8-7.4,4.4-11.2,8C95,154.9,96.9,156.4,98.8,157.9z"/>
		<path class="st3" d="M91.1,151.9l5.6-6.4l-13.9,0C83.6,146.1,87,148.7,91.1,151.9z"/>
		<path class="st3" d="M80.8,147.8l1.7-2.3l-4.7,0c1.5,10.9,4.6,20.5,8.6,29l27.3,0C108.8,168.6,93.2,157.6,80.8,147.8z"/>
		<path class="st3" d="M74.9,145.5H39.3c1.7,10.1,5,19.7,10.2,29l33.7,0C79.3,166.1,76.3,156.5,74.9,145.5z"/>
	</g>
	<g id="Row_4">
		<path class="st4" d="M220.5,113.5H205l5.1,29h11.1C222.8,131.2,221.8,120.1,220.5,113.5z"/>
		<path class="st4" d="M119.3,119.4c-5.3,0.9-11.2,3.1-17.3,7.2l12.3-13.1H78c-1.1,7.9-1.8,17.7-0.5,29h21.8L119.3,119.4z"/>
		<path class="st4" d="M75,113.5H39.5c-1.3,6.6-2.2,17.7-0.6,29h35.7C73.3,131.9,73.9,121,75,113.5z"/>
	</g>
	<g id="Row_3">
		<path class="st2" d="M185,83.7l15,1.8l4.4,25h15.5c-4.6-20.5-14.3-33.6-19.7-39.9c-2.8,2.2-8,5.8-15.9,9.5L185,83.7z"/>
		<path class="st2" d="M134.9,91.4l0-0.1c-1.1,0-2.3,0.1-3.4,0.1v3.7L134.9,91.4z"/>
		<path class="st2" d="M128.5,98.3v-6.9c-16.8-0.2-30.7-3.1-41.5-6.8c-3.7,7.6-6.6,16.2-8.4,25.9h38.5L128.5,98.3z"/>
		<path class="st2" d="M84.1,83.6c-12.7-4.7-20.6-10.1-24.3-13c-5.4,6.4-15.1,19.4-19.7,39.9h35.4C77.3,100.4,80.3,91.4,84.1,83.6z"
			/>
	</g>
	<g id="Row_2">
		<path class="st2" d="M182.6,70.8l1.2,6.2c7.1-3.4,11.9-6.7,14.5-8.7c-5.3-6-16.9-16.6-31.8-22.8c-1.9,2.4-5.5,6.3-10.4,9.8
			c3.1,3,7.6,8.5,11.7,14.4L182.6,70.8z"/>
		<path class="st2" d="M162.3,69.3l1.7,0.1c-0.6-0.8-1.1-1.5-1.7-2.3V69.3z"/>
		<path class="st2" d="M138.9,67.6l20.3,1.5v-2.7h2.4c-2.5-3.3-5.2-6.4-8.1-9.4c-5.7,3.5-13,6.5-22.1,6.8v24.6c1.3,0,2.6,0,3.9-0.1
			L138.9,67.6z"/>
		<path class="st2" d="M128.5,63.7c-9.1-0.3-16.4-3.2-22.1-6.8c-7.1,7.5-13.3,15.8-18.1,24.9c10.8,3.7,24,6.3,40.2,6.5V63.7z"/>
		<path class="st2" d="M103.9,55.3c-4.8-3.5-8.5-7.3-10.4-9.8C78.7,51.7,67,62.3,61.8,68.3c3.6,2.7,11.3,8,23.7,12.6
			C90.2,71.3,98.9,60.2,103.9,55.3z"/>
	</g>
	<g id="Row_1">
		<path class="st2" d="M154,53.1c-7.1-7.1-13.9-12.1-18.2-14.9c9.5,0.6,18.9,2.7,27.8,6.1C161.5,46.8,158.3,50.1,154,53.1z"/>
		<path class="st2" d="M131.5,39.1c3.7,2.2,11.5,7.4,19.9,15.7c-5.3,3.2-11.9,5.7-19.9,6V39.1z"/>
		<path class="st2" d="M128.5,39.1c-3.7,2.2-11.5,7.4-19.9,15.7c5.3,3.2,11.9,5.7,19.9,6V39.1z"/>
		<path class="st2" d="M106,53.1c7.1-7.1,13.9-12.1,18.2-14.9c-9.5,0.6-18.9,2.7-27.8,6.1C98.5,46.8,101.7,50.1,106,53.1z"/>
	</g>
</g>
<g id="Ship">
	<g id="Back" class="st5">
		<g id="Fore" class="st6">
			<path class="st0" d="M200.1,85.5l-15-1.8l-2.5-13l-20.3-1.5v-2.9h-3v2.7l-20.3-1.5l-4,23.8L102,126.6c6.1-4.1,11.9-6.3,17.3-7.2
				l-29.1,33.6l1.9,1.5c7-6.8,13.8-10.3,19.7-11.9L97.8,159l2.6,2c6.1-6.1,12.3-9.3,17.7-10.9l-11,16.1l1.3,1.1c4.7-3.3,12-7,19-8.7
				v5.5c7.5-2.5,19.3-3.6,31.8-3.1v10.3h3v-10.1c3.2,0.2,6.3,0.4,9.5,0.8c4.5,2,9.2,4.5,14.1,7.7l1.8-4.9c5.2,1.3,9.8,2.9,13.6,4.9
				l10-20.5L200.1,85.5z"/>
		</g>
		<path d="M213.6,174.5c-0.2,0-19.7,0-29.6-1.1c-5.8-0.7-14.5-2.2-23-3.6c-6.1-1.1-12.4-2.1-17.4-2.9c-7.7-1.1-18,0.2-24.7,1.4
			c-6,0.9-10.5-2.8-10.6-2.9l0,0c-6.5-5.3-24.8-19.3-25.7-20l-1.8,2.4c7.3,5.6,20.4,15.8,25.6,19.9l0,0c0,0,0.1,0.1,0.2,0.2
			c0.9,0.7,1.5,1.3,1.8,1.5c0.3,0.2,0.6,0.5,0.9,0.8c3,2.7,9.2,8.2,14.2,20c5.5,13,5,27.3,5,27.4l3,0.1c0-0.6,0.5-15.1-5.2-28.7
			c-3.4-8.1-7.5-13.5-10.8-17c5.6-1.1,18.7-3.5,27.6-2.2c5,0.7,11.3,1.8,17.4,2.9c8.5,1.5,17.2,3,23.1,3.7
			c9.4,1.1,26.3,1.2,29.5,1.2c0.3,0,0.4,0,0.5,0L213.6,174.5z"/>
	</g>
	<path class="st1" d="M140.2,121.5l-2.2,3.2l-4,24.5c0,0-5.4-1.4-12.9,0.2l-9.1,13.3c7.1-4,17.3-7.9,25.1-6.7l3.5-34.3L140.2,121.5z
		"/>
	<path class="st1" d="M134.6,119.8l-4.6,22.7c0,0-6.1-2.3-15-0.7l-11.9,14.1c10-8,21-10.1,29.3-9.1l4.3-26.5
		C136,120.1,135.3,120,134.6,119.8z"/>
	<path class="st1" d="M122.3,119l-24.2,27.9c8.9-6.2,19.8-9.2,30.4-6.9l4.2-20.6C129.6,118.9,126.1,118.7,122.3,119z"/>
	<path class="st1" d="M143.1,120.5l0.8-35.8l-32.5,34.7c4.8-1.8,9.7-2.7,14.6-2.7C133.7,116.8,139.7,119,143.1,120.5z"/>
	<path class="st1" d="M140.8,138.5l-1.5,14.9c8.7,0.2,24.7,0.1,45.6,13.1l8.8-23.9L140.8,138.5z"/>
	<path class="st1" d="M159.3,131.3c-6.8-0.2-12.9,0.6-17.9,1.6l-0.4,3.6l18.3,1.4V131.3z"/>
	<path class="st1" d="M162.3,138.2l29.6,2.3c-10.4-5.8-20.6-8.3-29.6-9V138.2z"/>
	<path class="st1" d="M189.8,119.4l-44.6-3.5l-0.2,7.8c0,0-0.9-0.6-2.6-1.4l-0.9,8.4c12.6-2.6,31.9-3.3,52,8.3L189.8,119.4z"/>
	<path class="st1" d="M159.3,109.3c-5.1,0.1-9.8,0.7-14,1.5l-0.1,3.1l14,1.1V109.3z"/>
	<path class="st1" d="M162.3,109.3v6l26.1,2C180.3,111.6,171,109.6,162.3,109.3z"/>
	<path class="st1" d="M185.6,97.2L145.7,94l-0.3,14.8c12.1-2.3,29.6-3.1,43.7,6.5L185.6,97.2z"/>
	<path class="st1" d="M159.3,87.7c-5,0-9.7,0.7-13.5,1.6l-0.1,2.7l13.5,1.1V87.7z"/>
	<path class="st1" d="M162.3,87.8v5.5l21.7,1.7C176.7,90.2,169.1,88.3,162.3,87.8z"/>
	<path class="st1" d="M180.9,72.6l-40.3-2.9l-3.2,19.1l8.6-9.2l-0.2,7.8c10-2.3,24.9-3.3,39,5.9L180.9,72.6z"/>
	<path class="st1" d="M162.3,159.1c0.9,0,1.8,0.1,2.6,0.2c-0.9-0.3-1.8-0.5-2.6-0.8V159.1z"/>
	<path class="st1" d="M159.3,157.6c-7-1.7-13.7-2.3-20.2-2.2l-0.3,3c-2.7-0.8-6-0.8-9.3-0.2v3.3c10.9-2.8,23.6-2.6,29.8-2.5V157.6z"
		/>
	<path class="st1" d="M193.6,148.4l-5.3,14.4c4.3,1.1,8.4,2.4,12,4.1l8.3-17.1L193.6,148.4z"/>
	<path class="st1" d="M195.4,143.7l-1,2.7l11.5,1.1C203.3,146.5,199.7,145.1,195.4,143.7z"/>
	<path class="st1" d="M196.1,141.8L196.1,141.8c5.8,1.8,10.1,3.7,12.7,4.9l-3-17.2l-12.3-1.5L196.1,141.8z"/>
	<path class="st1" d="M192.3,121.7l0.8,4.4l11.7,1.4C202.1,125.4,197.7,123.4,192.3,121.7z"/>
	<path class="st1" d="M191.8,119.4c5.3,1.6,9.9,3.5,13.2,5.7l-2.9-16.8l-12.5-0.9L191.8,119.4z"/>
	<path class="st1" d="M188.1,99.6l1.1,5.8l12.4,0.9C198.8,103.8,193.9,101.4,188.1,99.6z"/>
	<path class="st1" d="M187.6,97.4c5.5,1.6,10.2,3.7,13.6,6.1l-2.8-16.1l-12.9-1.5L187.6,97.4z"/>
	<path class="st1" d="M183.7,176.4c-5.9-0.7-14.7-2.2-23.1-3.7c-6.1-1-12.4-2.1-17.4-2.9c-8.9-1.3-22.1,1-27.6,2.2
		c5.4,6,14.9,18.4,15.9,41.5c2.1-3.3,4.9-5.7,8.3-7c5.5-2.1,11.2-3.2,17.4-3.2c4.3,0,8.8,0.5,15.1,1.5c0.9,0.2,1.9,0.2,2.9,0.2
		c8.9,0,18.7-6.7,27.7-18.9c2.1-2.9,4.2-5.8,6-8.7C202.3,177.4,190.7,177.2,183.7,176.4z"/>
</g>
<g id="Text">
	<g>
		<path class="st0" d="M26,148.5l0.4,2.2l-5.3,0.2l-5.2,1.9l-0.4-2.2l5.2-1.9L26,148.5z M26.7,151.9l0.4,2.2l-5.3,0.2l-5.2,1.9
			l-0.4-2.2l5.2-1.9L26.7,151.9z"/>
		<path class="st0" d="M25.6,168.4c-1.5,0.5-2.6,0.8-3.2,0.9c-0.6,0.1-1.3,0.1-1.9-0.1c-0.6-0.2-1.2-0.6-1.7-1.1s-0.8-1.2-1.1-2.1
			c-0.3-0.8-0.4-1.5-0.3-2.3s0.3-1.3,0.7-1.9c0.4-0.6,0.9-1,1.5-1.2s1.6-0.6,3.2-1.1l2.5-0.8c1.5-0.5,2.6-0.8,3.2-0.9
			c0.6-0.1,1.3-0.1,1.9,0.1c0.6,0.2,1.2,0.6,1.7,1.1c0.5,0.5,0.8,1.2,1.1,2.1c0.3,0.8,0.4,1.5,0.3,2.3c-0.1,0.7-0.3,1.3-0.7,1.9
			c-0.4,0.6-0.9,1-1.5,1.2c-0.6,0.3-1.6,0.6-3.2,1.1L25.6,168.4z M29.3,162.9c0.7-0.2,1.1-0.4,1.3-0.5c0.2-0.1,0.2-0.3,0.1-0.6
			c-0.1-0.2-0.2-0.3-0.4-0.4c-0.2-0.1-0.7,0-1.4,0.3l-6.9,2.2c-0.9,0.3-1.4,0.5-1.6,0.6c-0.2,0.1-0.2,0.3-0.1,0.6
			c0.1,0.3,0.3,0.4,0.5,0.4c0.3,0,0.8-0.1,1.7-0.4L29.3,162.9z"/>
		<path class="st0" d="M35.7,169l1.3,2.7c0.8,1.8,1.3,3,1.4,3.7c0.1,0.7,0.1,1.3-0.1,1.8c-0.2,0.5-0.5,0.9-1,1.2
			c-0.4,0.3-1.3,0.8-2.6,1.4l-4.9,2.3c-1.3,0.6-2.1,0.9-2.6,1c-0.5,0.1-0.9,0-1.3-0.2c-0.4-0.2-0.7-0.5-1-0.9s-0.7-1-1.1-1.9
			l-2.2-4.6L35.7,169z M35,173.8l-9.3,4.3c0.2,0.5,0.5,0.8,0.8,0.8s0.9-0.2,1.8-0.6l5.5-2.6c0.6-0.3,1-0.5,1.2-0.6
			c0.2-0.1,0.2-0.3,0.3-0.5S35.2,174.2,35,173.8z"/>
		<path class="st0" d="M41.5,180.7l3.6,5.7l-2.7,1.6l-1.4-2.3l-2.5,1.6l1.3,2.2l-2.5,1.6l-1.3-2.2l-2.9,1.8l1.6,2.5l-2.7,1.6l-3.7-6
			L41.5,180.7z"/>
		<path class="st0" d="M48.7,199.1l-2.3-3l0.9-0.7c0.4-0.3,0.7-0.6,0.7-0.7c0.1-0.2,0-0.3-0.1-0.5c-0.2-0.2-0.3-0.3-0.6-0.3
			s-0.5,0.2-0.8,0.4c-0.4,0.3-0.7,0.6-0.8,0.9c-0.1,0.3-0.1,0.8,0,1.5c0.3,2.1,0.3,3.5,0,4.3s-1,1.7-2.2,2.6
			c-0.9,0.7-1.6,1.1-2.2,1.2c-0.6,0.1-1.2,0-2-0.4s-1.4-0.9-2-1.7c-0.7-0.9-1.1-1.7-1.2-2.6c-0.2-0.9,0-1.6,0.3-2.2
			c0.4-0.6,1-1.2,1.9-1.9l0.8-0.6l2.3,3l-1.5,1.2c-0.5,0.4-0.7,0.6-0.8,0.8s0,0.4,0.2,0.6c0.2,0.2,0.4,0.3,0.6,0.3s0.5-0.2,0.9-0.4
			c0.7-0.6,1.1-1,1.2-1.4c0.1-0.4,0-1.2-0.1-2.4c-0.1-1.2-0.1-2-0.1-2.5c0-0.4,0.2-0.9,0.5-1.4s0.8-1,1.4-1.5
			c0.9-0.7,1.7-1.2,2.3-1.3c0.6-0.1,1.3,0,1.9,0.4c0.7,0.3,1.3,0.9,1.9,1.6c0.6,0.8,1.1,1.6,1.3,2.4c0.2,0.8,0.2,1.4-0.1,2
			c-0.3,0.5-0.9,1.1-1.8,1.9L48.7,199.1z"/>
		<path class="st0" d="M57.7,208.5l-2.7-2.7l0.8-0.8c0.4-0.4,0.6-0.7,0.6-0.8c0-0.2,0-0.3-0.2-0.5c-0.2-0.2-0.4-0.2-0.6-0.2
			c-0.2,0.1-0.5,0.2-0.8,0.5c-0.4,0.4-0.6,0.7-0.7,1c-0.1,0.3,0,0.8,0.1,1.5c0.5,2,0.7,3.5,0.5,4.3c-0.2,0.8-0.8,1.8-1.8,2.8
			c-0.8,0.8-1.5,1.3-2,1.5s-1.2,0.1-2-0.1c-0.8-0.3-1.5-0.8-2.2-1.5c-0.8-0.8-1.3-1.6-1.5-2.4s-0.2-1.6,0-2.2
			c0.3-0.6,0.8-1.3,1.7-2.2l0.7-0.7l2.7,2.7L49,210c-0.4,0.4-0.6,0.7-0.7,0.9c0,0.2,0,0.4,0.2,0.6s0.4,0.3,0.6,0.2s0.5-0.2,0.8-0.5
			c0.6-0.6,1-1.2,1-1.5c0-0.4-0.1-1.2-0.3-2.3c-0.2-1.2-0.4-2-0.4-2.4c0-0.4,0.1-0.9,0.3-1.5c0.2-0.5,0.6-1.1,1.2-1.7
			c0.8-0.8,1.6-1.4,2.2-1.5s1.3-0.1,2,0.1s1.4,0.7,2.1,1.4c0.7,0.7,1.3,1.5,1.5,2.3s0.3,1.4,0.1,1.9s-0.7,1.2-1.6,2.1L57.7,208.5z"
			/>
		<path class="st0" d="M69.3,212l-7.8,13.7l-3.3-2.6l1.6-2.3l-1.1-0.9l-1.9,2.1l-3.3-2.6l11.2-11L69.3,212z M61.5,218.5
			c0.9-1.5,2.1-3.4,3.6-5.5c-2.2,2.1-3.7,3.6-4.6,4.7L61.5,218.5z"/>
		<path class="st0" d="M89.7,223.9l-7,13.9l-3.2-1.6l4.7-9.4l-6,8.7l-2.2-1.1l3.3-9.8l-4.6,9.2l-3.2-1.6l7-13.9l4.7,2.4
			c-0.3,0.9-0.6,2-1.1,3.2l-1.3,3.8l4.1-6.1L89.7,223.9z"/>
		<path class="st0" d="M99.8,227.4L97,242.9l-3.9-1.3l0.7-2.7l-1.4-0.5l-1.1,2.6l-4-1.3l7-14.1L99.8,227.4z M94.5,236.2
			c0.4-1.7,0.9-3.9,1.5-6.4c-1.4,2.7-2.3,4.7-2.8,5.9L94.5,236.2z"/>
		<path class="st0" d="M104.8,228.9l2.8,0.6c1.9,0.4,3.1,0.7,3.8,1c0.6,0.3,1.1,0.8,1.4,1.4c0.3,0.7,0.3,1.7,0,3
			c-0.2,1.2-0.6,2-0.9,2.3c-0.4,0.3-1,0.5-1.9,0.4c0.7,0.4,1.2,0.7,1.4,1.1s0.3,0.7,0.3,1s-0.1,1-0.4,2.3l-0.8,4l-3.7-0.8l1.1-5.1
			c0.2-0.8,0.2-1.3,0.1-1.6c-0.1-0.2-0.4-0.4-1-0.5l-1.4,6.9l-4-0.8L104.8,228.9z M108.2,232.3l-0.7,3.4c0.4,0.1,0.8,0.1,1,0
			c0.2-0.1,0.4-0.5,0.5-1.1l0.2-0.8c0.1-0.5,0.1-0.8-0.1-1C108.9,232.6,108.6,232.4,108.2,232.3z"/>
		<path class="st0" d="M121.5,231.6l-1.6,15.5l-4-0.4l1.6-15.5L121.5,231.6z"/>
		<path class="st0" d="M133.6,232l-0.1,3.1l-2.4,0l-0.2,12.5l-4-0.1l0.2-12.5l-2.4,0l0.1-3.1L133.6,232z"/>
		<path class="st0" d="M140.9,231.4l1.3,15.5l-4,0.3l-1.3-15.5L140.9,231.4z"/>
		<path class="st0" d="M156.9,228.5l3.2,15.2l-3.5,0.7l-2.1-10.3l0.8,10.6l-2.5,0.5l-3.5-9.8l2.1,10.1l-3.5,0.7l-3.2-15.2l5.1-1.1
			c0.3,0.9,0.7,1.9,1.1,3.1l1.4,3.8l-0.6-7.3L156.9,228.5z"/>
		<path class="st0" d="M160.5,227.3l6.4-2.2l1,2.9l-2.6,0.9l1,2.8l2.4-0.8l1,2.8l-2.4,0.8l1.1,3.2l2.8-1l1,2.9l-6.6,2.3L160.5,227.3
			z"/>
		<path class="st0" d="M181.9,217.8l9.6,12.5l-3.6,2l-1.6-2.3l-1.3,0.7l1.1,2.6l-3.7,2l-5.8-14.6L181.9,217.8z M184.9,227.6
			c-1-1.4-2.3-3.2-3.7-5.4c1.1,2.8,1.9,4.8,2.5,6.1L184.9,227.6z"/>
		<path class="st0" d="M198,215l-3.3,2.4l-1.6-2.2c-0.5-0.6-0.8-1-1-1.1c-0.2-0.1-0.4-0.1-0.6,0.1c-0.3,0.2-0.4,0.4-0.3,0.7
			s0.3,0.7,0.8,1.3l4.3,5.8c0.4,0.6,0.8,1,1,1.1c0.2,0.1,0.4,0.1,0.7-0.1c0.2-0.2,0.3-0.4,0.3-0.6c-0.1-0.2-0.3-0.7-0.8-1.4
			l-1.2-1.6l3.3-2.4l0.4,0.5c1,1.3,1.5,2.3,1.7,3s0.2,1.5-0.2,2.3c-0.3,0.9-1,1.6-1.9,2.3c-1,0.7-1.9,1.1-2.7,1.2
			c-0.9,0.1-1.6-0.1-2.3-0.5s-1.4-1.3-2.3-2.5l-2.7-3.7c-0.7-0.9-1.1-1.6-1.4-2.1c-0.3-0.5-0.4-1.1-0.4-1.7s0.2-1.3,0.6-1.9
			c0.4-0.6,0.9-1.2,1.6-1.7c1-0.7,1.9-1.1,2.8-1.2c0.9-0.1,1.6,0.1,2.3,0.5c0.6,0.4,1.3,1.2,2.2,2.4L198,215z"/>
		<path class="st0" d="M201.8,202.4l12.3,9.8l-3,2.8l-2.1-1.9l-1.1,1l1.7,2.2l-3.1,2.9l-9.2-12.8L201.8,202.4z M207.1,211.2
			c-1.4-1.1-3-2.6-4.9-4.3c1.7,2.5,3,4.2,3.9,5.3L207.1,211.2z"/>
		<path class="st0" d="M205.4,198.7l1.9-2.3c1.3-1.5,2.2-2.5,2.7-2.9c0.6-0.4,1.1-0.6,1.7-0.6s1,0.1,1.5,0.4
			c0.4,0.3,1.2,0.9,2.4,1.8l4.2,3.5c1.1,0.9,1.8,1.5,2,1.9c0.3,0.4,0.4,0.8,0.4,1.2c0,0.4-0.1,0.9-0.3,1.3c-0.2,0.4-0.6,1-1.3,1.8
			l-3.3,3.9L205.4,198.7z M210.1,197.3l7.9,6.6c0.4-0.4,0.5-0.8,0.4-1.1c-0.1-0.3-0.5-0.7-1.3-1.4l-4.7-3.9
			c-0.5-0.5-0.9-0.7-1.1-0.8s-0.4-0.1-0.5,0S210.4,196.9,210.1,197.3z"/>
		<path class="st0" d="M213.6,188.4l3.7-5.7l2.6,1.7l-1.5,2.3l2.5,1.6l1.4-2.1l2.5,1.6l-1.4,2.1l2.9,1.9l1.6-2.5l2.6,1.7l-3.8,5.9
			L213.6,188.4z"/>
		<path class="st0" d="M224.6,168.5l14,6.8l-1.5,3.2l-9.5-4.6l8.9,5.8l-1.1,2.3l-9.9-3.1l9.3,4.5l-1.5,3.2l-14-6.8l2.3-4.7
			c0.9,0.3,2,0.6,3.2,1l3.8,1.2l-6.1-4L224.6,168.5z"/>
		<path class="st0" d="M228.5,156.8l8.5,5.9l5.4,1.7l-1.2,3.6l-5.4-1.7l-10.3-0.3l1.1-3.5c3.1,0.4,5.1,0.7,6.1,0.9
			c-1.5-0.7-3.3-1.7-5.5-3L228.5,156.8z"/>
		<path class="st0" d="M233.1,152.9l5.3,0.3l5.2,1.9l-0.5,2.2l-5.2-1.9l-5.3-0.3L233.1,152.9z M233.8,149.4l5.3,0.3l5.2,1.9
			l-0.5,2.2l-5.2-1.9l-5.3-0.3L233.8,149.4z"/>
	</g>
	<g>
		<path class="st0" d="M33.5,62.7l13.1,8.4l-1.9,3L37.6,72l6,3.8l-1.8,2.8l-13.1-8.4l1.8-2.8l7.1,1.9l-5.9-3.8L33.5,62.7z"/>
		<path class="st0" d="M41.6,52.4L55,60.6l-2.7,3.2l-2.3-1.6l-0.9,1.1l2,2l-2.7,3.2L37.9,56.9L41.6,52.4z M47.9,60.5
			c-1.5-1-3.3-2.2-5.4-3.7c2,2.2,3.5,3.8,4.5,4.8L47.9,60.5z"/>
		<path class="st0" d="M51.7,42.2l2.2,2.2l-1.7,1.7l8.6,9l-2.9,2.8l-8.6-9l-1.7,1.7l-2.2-2.2L51.7,42.2z"/>
		<path class="st0" d="M58.7,36.5l9.7,12.2l-3.2,2.5L55.5,39L58.7,36.5z"/>
		<path class="st0" d="M76.1,35.8c0.8,1.3,1.4,2.3,1.7,2.9c0.3,0.6,0.4,1.2,0.4,1.9c0,0.7-0.3,1.3-0.7,1.9c-0.4,0.6-1,1.1-1.7,1.6
			c-0.7,0.4-1.4,0.7-2.1,0.9c-0.7,0.1-1.4,0.1-2-0.2s-1.2-0.6-1.6-1.1s-1-1.4-1.9-2.8l-1.4-2.3c-0.8-1.3-1.4-2.3-1.7-2.9
			c-0.3-0.6-0.4-1.2-0.4-1.9c0-0.7,0.3-1.3,0.7-1.9c0.4-0.6,1-1.1,1.7-1.6c0.7-0.4,1.4-0.7,2.1-0.9c0.7-0.1,1.4-0.1,2,0.2
			c0.6,0.2,1.2,0.6,1.6,1.1c0.4,0.5,1,1.4,1.9,2.8L76.1,35.8z M69.9,33.6c-0.4-0.6-0.7-1-0.8-1.1c-0.2-0.1-0.4-0.1-0.6,0
			c-0.2,0.1-0.3,0.3-0.3,0.5c0,0.2,0.2,0.6,0.6,1.3l3.9,6.1c0.5,0.8,0.8,1.2,1,1.4c0.2,0.1,0.4,0.1,0.6,0c0.2-0.1,0.3-0.3,0.3-0.6
			c-0.1-0.2-0.3-0.8-0.8-1.5L69.9,33.6z"/>
		<path class="st0" d="M84.7,21.4l6.5,14.1L88.1,37l-4.9-5.5l3,6.4l-3.1,1.4l-6.5-14.1l3.1-1.4l5,5.4l-2.9-6.4L84.7,21.4z"/>
		<path class="st0" d="M97.1,17.1l6.9,14.1l-3.9,1.3L99,29.9l-1.4,0.4l0.6,2.7l-4,1.3l-2.7-15.5L97.1,17.1z M98.1,27.3
			c-0.7-1.6-1.6-3.6-2.6-6c0.5,3,0.9,5.1,1.2,6.5L98.1,27.3z"/>
		<path class="st0" d="M108.1,14.5l2.4,12.2l2.4-0.5l0.6,3.1l-6.4,1.3l-3-15.3L108.1,14.5z"/>
		<path class="st0" d="M132.1,12.4l0.2,10.4c0,1.2,0,2-0.1,2.5c-0.1,0.5-0.3,1-0.7,1.5c-0.4,0.5-0.9,0.9-1.5,1.2
			c-0.6,0.3-1.3,0.4-2.2,0.4c-0.9,0-1.8-0.1-2.5-0.4c-0.7-0.3-1.3-0.7-1.6-1.2c-0.4-0.5-0.6-1-0.7-1.5c-0.1-0.5-0.1-1.7-0.2-3.5
			l-0.2-9.2l4-0.1l0.2,11.7c0,0.7,0.1,1.1,0.1,1.3s0.2,0.3,0.5,0.3c0.3,0,0.4-0.1,0.5-0.3s0.1-0.7,0.1-1.5l-0.2-11.5L132.1,12.4z"/>
		<path class="st0" d="M147.2,13.6l-1.7,15.5l-3.5-0.4l-1.3-7.3l-0.8,7l-3.4-0.4l1.7-15.5l3.4,0.4l1.5,7.2l0.7-7L147.2,13.6z"/>
		<path class="st0" d="M156.9,15.5l-3.3,15.2l-4-0.9l3.3-15.2L156.9,15.5z"/>
		<path class="st0" d="M171.7,19.9l-6.8,14.2l-5.8-1.9l2.6-15.5l4.1,1.3c-0.9,4.2-1.7,7.8-2.4,10.7c1.1-2.8,2.2-5.2,3.1-7.4l1.2-2.7
			L171.7,19.9z"/>
		<path class="st0" d="M176.3,21.9l6.1,2.8l-1.3,2.8l-2.5-1.1l-1.2,2.7l2.3,1.1l-1.2,2.7l-2.3-1.1l-1.4,3.1l2.7,1.2l-1.3,2.8
			l-6.4-2.9L176.3,21.9z"/>
		<path class="st0" d="M187.6,27.4l2.4,1.5c1.6,1,2.7,1.7,3.2,2.2c0.5,0.5,0.8,1.1,0.8,1.8c0,0.7-0.3,1.7-1,2.8
			c-0.6,1-1.2,1.6-1.7,1.8c-0.5,0.2-1.1,0.1-1.9-0.3c0.6,0.6,0.9,1.1,1,1.5c0.1,0.4,0,0.8,0,1.1c-0.1,0.3-0.5,0.9-1.1,2l-2.1,3.5
			l-3.2-2l2.7-4.4c0.4-0.7,0.7-1.2,0.6-1.4s-0.3-0.5-0.7-0.8l-3.7,6l-3.5-2.1L187.6,27.4z M189.7,31.8l-1.8,3
			c0.4,0.2,0.7,0.4,0.9,0.3c0.2,0,0.5-0.3,0.9-0.9l0.4-0.7c0.3-0.4,0.4-0.7,0.3-1C190.3,32.3,190.1,32,189.7,31.8z"/>
		<path class="st0" d="M204,44.7l-2.9-2.4l0.7-0.9c0.3-0.4,0.5-0.7,0.5-0.9s-0.1-0.3-0.2-0.5c-0.2-0.2-0.4-0.2-0.6-0.1
			c-0.2,0.1-0.5,0.3-0.7,0.6c-0.3,0.4-0.5,0.8-0.6,1c-0.1,0.3,0,0.8,0.3,1.5c0.7,2,1.1,3.4,1,4.2s-0.6,1.8-1.5,3
			c-0.7,0.9-1.3,1.4-1.8,1.7c-0.5,0.2-1.2,0.3-2,0.1s-1.6-0.6-2.4-1.2c-0.8-0.7-1.4-1.4-1.8-2.2c-0.3-0.8-0.4-1.5-0.2-2.2
			s0.7-1.4,1.4-2.3l0.6-0.8l2.9,2.4l-1.2,1.5c-0.4,0.5-0.6,0.8-0.6,1c0,0.2,0.1,0.4,0.3,0.5c0.2,0.2,0.4,0.2,0.7,0.1
			c0.2-0.1,0.5-0.3,0.7-0.6c0.6-0.7,0.9-1.3,0.8-1.6c0-0.4-0.2-1.1-0.6-2.3c-0.4-1.2-0.6-1.9-0.6-2.4c-0.1-0.4,0-0.9,0.1-1.5
			c0.2-0.5,0.5-1.1,1-1.8c0.7-0.9,1.4-1.5,2-1.8c0.6-0.2,1.2-0.3,2-0.1c0.7,0.2,1.5,0.6,2.2,1.2c0.8,0.7,1.4,1.4,1.8,2.1
			c0.4,0.7,0.5,1.4,0.3,1.9c-0.1,0.6-0.6,1.3-1.4,2.3L204,44.7z"/>
		<path class="st0" d="M214.1,47.8l-10.9,11.1l-2.9-2.8l10.9-11.1L214.1,47.8z"/>
		<path class="st0" d="M223.2,58.2l-2.4,2l-1.5-1.8l-9.6,8l-2.6-3.1l9.6-8l-1.5-1.8l2.4-2L223.2,58.2z"/>
		<path class="st0" d="M231.3,70.2l-9.9,2.9l-4.7,3.1l-2-3.1l4.7-3.1l6.8-7.8l2,3.1c-2.2,2.1-3.8,3.5-4.6,4.2
			c1.5-0.7,3.4-1.5,5.8-2.4L231.3,70.2z"/>
	</g>
</g>
<path id="Anchor" class="st0" d="M65.1,151.6l0.9,0.7c-1.9,1.7-3.3,2.6-6.7,2.8l-0.8-18.9l10-2.4l0.3-1.2H58.3l-0.1-1.3
	c1.3-0.5,2.2-1.8,2.2-3.3c0-1.9-1.6-3.5-3.5-3.5s-3.5,1.6-3.5,3.5c0,1.5,0.9,2.7,2.2,3.3l-0.1,1.3H45.3l0.3,1.2l10,2.4l-0.8,18.9
	c-3.5-0.2-4.8-1.1-6.7-2.8l0.9-0.7l-4.1-3.1l0.4,5.7l1.5-1.1c2,3.2,7.8,6.1,10.2,6.1s8.3-2.9,10.2-6.1l1.5,1.1l0.4-5.7L65.1,151.6z
	 M55,128c0-1.1,0.9-2,2-2s2,0.9,2,2s-0.9,2-2,2S55,129.1,55,128z"/>
</svg>
